{
    "asset" : {
        "generator" : "Khronos glTF Blender I/O v1.4.40",
        "version" : "2.0"
    },
    "scene" : 0,
    "scenes" : [
        {
            "name" : "Scene",
            "nodes" : [
                0
            ]
        }
    ],
    "nodes" : [
        {
            "mesh" : 0,
            "name" : "Object361",
            "rotation" : [
                0,
                -0.7071068286895752,
                0,
                0.7071068286895752
            ],
            "scale" : [
                0.0010000000474974513,
                0.0010000000474974513,
                0.0010000000474974513
            ],
            "translation" : [
                0.04780922457575798,
                0.23129482567310333,
                0
            ]
        }
    ],
    "materials" : [
        {
            "doubleSided" : true,
            "name" : "White",
            "pbrMetallicRoughness" : {
                "baseColorTexture" : {
                    "index" : 0,
                    "texCoord" : 0
                },
                "metallicFactor" : 0,
                "roughnessFactor" : 0.5
            }
        },
        {
            "doubleSided" : true,
            "name" : "Black",
            "pbrMetallicRoughness" : {
                "baseColorTexture" : {
                    "index" : 1,
                    "texCoord" : 0
                },
                "metallicFactor" : 0,
                "roughnessFactor" : 0.5
            }
        }
    ],
    "meshes" : [
        {
            "name" : "Mesh.117",
            "primitives" : [
                {
                    "attributes" : {
                        "POSITION" : 0,
                        "NORMAL" : 1,
                        "TEXCOORD_0" : 2
                    },
                    "indices" : 3,
                    "material" : 0
                },
                {
                    "attributes" : {
                        "POSITION" : 4,
                        "NORMAL" : 5,
                        "TEXCOORD_0" : 6
                    },
                    "indices" : 7,
                    "material" : 1
                }
            ]
        }
    ],
    "textures" : [
        {
            "sampler" : 0,
            "source" : 0
        },
        {
            "sampler" : 0,
            "source" : 1
        }
    ],
    "images" : [
        {
            "bufferView" : 4,
            "mimeType" : "image/png",
            "name" : "blueWoodTex"
        },
        {
            "bufferView" : 9,
            "mimeType" : "image/png",
            "name" : "greyTex"
        }
    ],
    "accessors" : [
        {
            "bufferView" : 0,
            "componentType" : 5126,
            "count" : 15018,
            "max" : [
                54.97884750366211,
                41.165794372558594,
                180.51206970214844
            ],
            "min" : [
                -44.21774673461914,
                -69.22867584228516,
                -78.10707092285156
            ],
            "type" : "VEC3"
        },
        {
            "bufferView" : 1,
            "componentType" : 5126,
            "count" : 15018,
            "type" : "VEC3"
        },
        {
            "bufferView" : 2,
            "componentType" : 5126,
            "count" : 15018,
            "type" : "VEC2"
        },
        {
            "bufferView" : 3,
            "componentType" : 5123,
            "count" : 61338,
            "type" : "SCALAR"
        },
        {
            "bufferView" : 5,
            "componentType" : 5126,
            "count" : 6668,
            "max" : [
                55.26390838623047,
                32.335243225097656,
                180.2178497314453
            ],
            "min" : [
                -44.9602165222168,
                -66.15211486816406,
                -77.55325317382812
            ],
            "type" : "VEC3"
        },
        {
            "bufferView" : 6,
            "componentType" : 5126,
            "count" : 6668,
            "type" : "VEC3"
        },
        {
            "bufferView" : 7,
            "componentType" : 5126,
            "count" : 6668,
            "type" : "VEC2"
        },
        {
            "bufferView" : 8,
            "componentType" : 5123,
            "count" : 33018,
            "type" : "SCALAR"
        }
    ],
    "bufferViews" : [
        {
            "buffer" : 0,
            "byteLength" : 180216,
            "byteOffset" : 0
        },
        {
            "buffer" : 0,
            "byteLength" : 180216,
            "byteOffset" : 180216
        },
        {
            "buffer" : 0,
            "byteLength" : 120144,
            "byteOffset" : 360432
        },
        {
            "buffer" : 0,
            "byteLength" : 122676,
            "byteOffset" : 480576
        },
        {
            "buffer" : 0,
            "byteLength" : 262628,
            "byteOffset" : 603252
        },
        {
            "buffer" : 0,
            "byteLength" : 80016,
            "byteOffset" : 865880
        },
        {
            "buffer" : 0,
            "byteLength" : 80016,
            "byteOffset" : 945896
        },
        {
            "buffer" : 0,
            "byteLength" : 53344,
            "byteOffset" : 1025912
        },
        {
            "buffer" : 0,
            "byteLength" : 66036,
            "byteOffset" : 1079256
        },
        {
            "buffer" : 0,
            "byteLength" : 276787,
            "byteOffset" : 1145292
        }
    ],
    "samplers" : [
        {
            "magFilter" : 9729,
            "minFilter" : 9986
        }
    ],
    "buffers" : [
        {
            "byteLength" : 1422080,
            "uri" : "data:application/octet-stream;base64,"
        }
    ]
}
