{
    "asset" : {
        "generator" : "Khronos glTF Blender I/O v1.4.40",
        "version" : "2.0"
    },
    "scene" : 0,
    "scenes" : [
        {
            "name" : "Scene",
            "nodes" : [
                0
            ]
        }
    ],
    "nodes" : [
        {
            "mesh" : 0,
            "name" : "Object361",
            "rotation" : [
                0,
                -0.7071068286895752,
                0,
                0.7071068286895752
            ],
            "scale" : [
                0,
                0,
                0
            ],
            "translation" : [
                0.04780922457575798,
                0.210328608751297,
                0
            ]
        }
    ],
    "animations" : [
        {
            "channels" : [
                {
                    "sampler" : 0,
                    "target" : {
                        "node" : 0,
                        "path" : "translation"
                    }
                },
                {
                    "sampler" : 1,
                    "target" : {
                        "node" : 0,
                        "path" : "scale"
                    }
                }
            ],
            "name" : "Animation",
            "samplers" : [
                {
                    "input" : 8,
                    "interpolation" : "LINEAR",
                    "output" : 9
                },
                {
                    "input" : 10,
                    "interpolation" : "LINEAR",
                    "output" : 11
                }
            ]
        }
    ],
    "materials" : [
        {
            "doubleSided" : true,
            "name" : "White",
            "pbrMetallicRoughness" : {
                "baseColorTexture" : {
                    "index" : 0,
                    "texCoord" : 0
                },
                "metallicFactor" : 0,
                "roughnessFactor" : 0.5
            }
        },
        {
            "doubleSided" : true,
            "name" : "Black",
            "pbrMetallicRoughness" : {
                "baseColorTexture" : {
                    "index" : 1,
                    "texCoord" : 0
                },
                "metallicFactor" : 0,
                "roughnessFactor" : 0.5
            }
        }
    ],
    "meshes" : [
        {
            "name" : "Mesh.117",
            "primitives" : [
                {
                    "attributes" : {
                        "POSITION" : 0,
                        "NORMAL" : 1,
                        "TEXCOORD_0" : 2
                    },
                    "indices" : 3,
                    "material" : 0
                },
                {
                    "attributes" : {
                        "POSITION" : 4,
                        "NORMAL" : 5,
                        "TEXCOORD_0" : 6
                    },
                    "indices" : 7,
                    "material" : 1
                }
            ]
        }
    ],
    "textures" : [
        {
            "sampler" : 0,
            "source" : 0
        },
        {
            "sampler" : 0,
            "source" : 1
        }
    ],
    "images" : [
        {
            "bufferView" : 4,
            "mimeType" : "image/png",
            "name" : "whiteTex"
        },
        {
            "bufferView" : 9,
            "mimeType" : "image/jpeg",
            "name" : "blueTex"
        }
    ],
    "accessors" : [
        {
            "bufferView" : 0,
            "componentType" : 5126,
            "count" : 14789,
            "max" : [
                54.97884750366211,
                41.165794372558594,
                180.51206970214844
            ],
            "min" : [
                -44.21774673461914,
                -69.22867584228516,
                -78.10707092285156
            ],
            "type" : "VEC3"
        },
        {
            "bufferView" : 1,
            "componentType" : 5126,
            "count" : 14789,
            "type" : "VEC3"
        },
        {
            "bufferView" : 2,
            "componentType" : 5126,
            "count" : 14789,
            "type" : "VEC2"
        },
        {
            "bufferView" : 3,
            "componentType" : 5123,
            "count" : 60972,
            "type" : "SCALAR"
        },
        {
            "bufferView" : 5,
            "componentType" : 5126,
            "count" : 6767,
            "max" : [
                55.26390838623047,
                32.335243225097656,
                180.2178497314453
            ],
            "min" : [
                -44.9602165222168,
                -66.15211486816406,
                -77.55325317382812
            ],
            "type" : "VEC3"
        },
        {
            "bufferView" : 6,
            "componentType" : 5126,
            "count" : 6767,
            "type" : "VEC3"
        },
        {
            "bufferView" : 7,
            "componentType" : 5126,
            "count" : 6767,
            "type" : "VEC2"
        },
        {
            "bufferView" : 8,
            "componentType" : 5123,
            "count" : 33384,
            "type" : "SCALAR"
        },
        {
            "bufferView" : 10,
            "componentType" : 5126,
            "count" : 21,
            "max" : [
                2.6666666666666665
            ],
            "min" : [
                2
            ],
            "type" : "SCALAR"
        },
        {
            "bufferView" : 11,
            "componentType" : 5126,
            "count" : 21,
            "type" : "VEC3"
        },
        {
            "bufferView" : 12,
            "componentType" : 5126,
            "count" : 80,
            "max" : [
                2.6666666666666665
            ],
            "min" : [
                0.03333333333333333
            ],
            "type" : "SCALAR"
        },
        {
            "bufferView" : 13,
            "componentType" : 5126,
            "count" : 80,
            "type" : "VEC3"
        }
    ],
    "bufferViews" : [
        {
            "buffer" : 0,
            "byteLength" : 177468,
            "byteOffset" : 0
        },
        {
            "buffer" : 0,
            "byteLength" : 177468,
            "byteOffset" : 177468
        },
        {
            "buffer" : 0,
            "byteLength" : 118312,
            "byteOffset" : 354936
        },
        {
            "buffer" : 0,
            "byteLength" : 121944,
            "byteOffset" : 473248
        },
        {
            "buffer" : 0,
            "byteLength" : 272136,
            "byteOffset" : 595192
        },
        {
            "buffer" : 0,
            "byteLength" : 81204,
            "byteOffset" : 867328
        },
        {
            "buffer" : 0,
            "byteLength" : 81204,
            "byteOffset" : 948532
        },
        {
            "buffer" : 0,
            "byteLength" : 54136,
            "byteOffset" : 1029736
        },
        {
            "buffer" : 0,
            "byteLength" : 66768,
            "byteOffset" : 1083872
        },
        {
            "buffer" : 0,
            "byteLength" : 638406,
            "byteOffset" : 1150640
        },
        {
            "buffer" : 0,
            "byteLength" : 84,
            "byteOffset" : 1789048
        },
        {
            "buffer" : 0,
            "byteLength" : 252,
            "byteOffset" : 1789132
        },
        {
            "buffer" : 0,
            "byteLength" : 320,
            "byteOffset" : 1789384
        },
        {
            "buffer" : 0,
            "byteLength" : 960,
            "byteOffset" : 1789704
        }
    ],
    "samplers" : [
        {
            "magFilter" : 9729,
            "minFilter" : 9986
        }
    ],
    "buffers" : [
        {
            "byteLength" : 1790664,
            "uri" : "data:application/octet-stream;base64,"
        }
    ]
}
