{
    "asset" : {
        "generator" : "Khronos glTF Blender I/O v1.4.40",
        "version" : "2.0"
    },
    "scene" : 0,
    "scenes" : [
        {
            "name" : "Scene",
            "nodes" : [
                0
            ]
        }
    ],
    "nodes" : [
        {
            "mesh" : 0,
            "name" : "Object361",
            "rotation" : [
                0,
                -0.7071068286895752,
                0,
                0.7071068286895752
            ],
            "scale" : [
                0.0010000000474974513,
                0.0010000000474974513,
                0.0010000000474974513
            ],
            "translation" : [
                0.04780922457575798,
                0.23129482567310333,
                0
            ]
        }
    ],
    "materials" : [
        {
            "doubleSided" : true,
            "name" : "White",
            "pbrMetallicRoughness" : {
                "baseColorTexture" : {
                    "index" : 0,
                    "texCoord" : 0
                },
                "metallicFactor" : 0,
                "roughnessFactor" : 0.5
            }
        },
        {
            "doubleSided" : true,
            "name" : "Black",
            "pbrMetallicRoughness" : {
                "baseColorTexture" : {
                    "index" : 1,
                    "texCoord" : 0
                },
                "metallicFactor" : 0,
                "roughnessFactor" : 0.5
            }
        }
    ],
    "meshes" : [
        {
            "name" : "Mesh.117",
            "primitives" : [
                {
                    "attributes" : {
                        "POSITION" : 0,
                        "NORMAL" : 1,
                        "TEXCOORD_0" : 2
                    },
                    "indices" : 3,
                    "material" : 0
                },
                {
                    "attributes" : {
                        "POSITION" : 4,
                        "NORMAL" : 5,
                        "TEXCOORD_0" : 6
                    },
                    "indices" : 7,
                    "material" : 1
                }
            ]
        }
    ],
    "textures" : [
        {
            "sampler" : 0,
            "source" : 0
        },
        {
            "sampler" : 0,
            "source" : 1
        }
    ],
    "images" : [
        {
            "bufferView" : 4,
            "mimeType" : "image/png",
            "name" : "plasticShinyBlackTex"
        },
        {
            "bufferView" : 9,
            "mimeType" : "image/png",
            "name" : "greyTex"
        }
    ],
    "accessors" : [
        {
            "bufferView" : 0,
            "componentType" : 5126,
            "count" : 12554,
            "max" : [
                54.97884750366211,
                41.165794372558594,
                180.51206970214844
            ],
            "min" : [
                -44.21774673461914,
                -69.20027923583984,
                -78.10707092285156
            ],
            "type" : "VEC3"
        },
        {
            "bufferView" : 1,
            "componentType" : 5126,
            "count" : 12554,
            "type" : "VEC3"
        },
        {
            "bufferView" : 2,
            "componentType" : 5126,
            "count" : 12554,
            "type" : "VEC2"
        },
        {
            "bufferView" : 3,
            "componentType" : 5123,
            "count" : 50097,
            "type" : "SCALAR"
        },
        {
            "bufferView" : 5,
            "componentType" : 5126,
            "count" : 5247,
            "max" : [
                55.26390838623047,
                32.335243225097656,
                180.2178497314453
            ],
            "min" : [
                -45.002769470214844,
                -66.15211486816406,
                -77.62451934814453
            ],
            "type" : "VEC3"
        },
        {
            "bufferView" : 6,
            "componentType" : 5126,
            "count" : 5247,
            "type" : "VEC3"
        },
        {
            "bufferView" : 7,
            "componentType" : 5126,
            "count" : 5247,
            "type" : "VEC2"
        },
        {
            "bufferView" : 8,
            "componentType" : 5123,
            "count" : 25386,
            "type" : "SCALAR"
        }
    ],
    "bufferViews" : [
        {
            "buffer" : 0,
            "byteLength" : 150648,
            "byteOffset" : 0
        },
        {
            "buffer" : 0,
            "byteLength" : 150648,
            "byteOffset" : 150648
        },
        {
            "buffer" : 0,
            "byteLength" : 100432,
            "byteOffset" : 301296
        },
        {
            "buffer" : 0,
            "byteLength" : 100194,
            "byteOffset" : 401728
        },
        {
            "buffer" : 0,
            "byteLength" : 208769,
            "byteOffset" : 501924
        },
        {
            "buffer" : 0,
            "byteLength" : 62964,
            "byteOffset" : 710696
        },
        {
            "buffer" : 0,
            "byteLength" : 62964,
            "byteOffset" : 773660
        },
        {
            "buffer" : 0,
            "byteLength" : 41976,
            "byteOffset" : 836624
        },
        {
            "buffer" : 0,
            "byteLength" : 50772,
            "byteOffset" : 878600
        },
        {
            "buffer" : 0,
            "byteLength" : 276787,
            "byteOffset" : 929372
        }
    ],
    "samplers" : [
        {
            "magFilter" : 9729,
            "minFilter" : 9986
        }
    ],
    "buffers" : [
        {
            "byteLength" : 1206160,
            "uri" : "data:application/octet-stream;base64,"
        }
    ]
}
