{
    "asset" : {
        "generator" : "Khronos glTF Blender I/O v1.4.40",
        "version" : "2.0"
    },
    "scene" : 0,
    "scenes" : [
        {
            "name" : "Scene",
            "nodes" : [
                0
            ]
        }
    ],
    "nodes" : [
        {
            "mesh" : 0,
            "name" : "Object361",
            "rotation" : [
                0,
                -0.7071068286895752,
                0,
                0.7071068286895752
            ],
            "scale" : [
                0.0010000000474974513,
                0.0010000000474974513,
                0.0010000000474974513
            ],
            "translation" : [
                0.04780922457575798,
                0.23129482567310333,
                0
            ]
        }
    ],
    "materials" : [
        {
            "doubleSided" : true,
            "name" : "White.001",
            "pbrMetallicRoughness" : {
                "baseColorTexture" : {
                    "index" : 0,
                    "texCoord" : 0
                },
                "metallicFactor" : 0,
                "roughnessFactor" : 0.5
            }
        },
        {
            "doubleSided" : true,
            "name" : "Black.001",
            "pbrMetallicRoughness" : {
                "baseColorTexture" : {
                    "index" : 1,
                    "texCoord" : 0
                },
                "metallicFactor" : 0,
                "roughnessFactor" : 0.5
            }
        }
    ],
    "meshes" : [
        {
            "name" : "Mesh.002",
            "primitives" : [
                {
                    "attributes" : {
                        "POSITION" : 0,
                        "NORMAL" : 1,
                        "TEXCOORD_0" : 2
                    },
                    "indices" : 3,
                    "material" : 0
                },
                {
                    "attributes" : {
                        "POSITION" : 4,
                        "NORMAL" : 5,
                        "TEXCOORD_0" : 6
                    },
                    "indices" : 7,
                    "material" : 1
                }
            ]
        }
    ],
    "textures" : [
        {
            "sampler" : 0,
            "source" : 0
        },
        {
            "sampler" : 0,
            "source" : 1
        }
    ],
    "images" : [
        {
            "bufferView" : 4,
            "mimeType" : "image/jpeg",
            "name" : "leatherRedTex"
        },
        {
            "bufferView" : 9,
            "mimeType" : "image/png",
            "name" : "plasticShinyBlackTex"
        }
    ],
    "accessors" : [
        {
            "bufferView" : 0,
            "componentType" : 5126,
            "count" : 14870,
            "max" : [
                54.97884750366211,
                41.165794372558594,
                180.51206970214844
            ],
            "min" : [
                -44.21774673461914,
                -69.22867584228516,
                -78.10707092285156
            ],
            "type" : "VEC3"
        },
        {
            "bufferView" : 1,
            "componentType" : 5126,
            "count" : 14870,
            "type" : "VEC3"
        },
        {
            "bufferView" : 2,
            "componentType" : 5126,
            "count" : 14870,
            "type" : "VEC2"
        },
        {
            "bufferView" : 3,
            "componentType" : 5123,
            "count" : 60972,
            "type" : "SCALAR"
        },
        {
            "bufferView" : 5,
            "componentType" : 5126,
            "count" : 6816,
            "max" : [
                55.26390838623047,
                32.335243225097656,
                180.2178497314453
            ],
            "min" : [
                -44.9602165222168,
                -66.15211486816406,
                -77.55325317382812
            ],
            "type" : "VEC3"
        },
        {
            "bufferView" : 6,
            "componentType" : 5126,
            "count" : 6816,
            "type" : "VEC3"
        },
        {
            "bufferView" : 7,
            "componentType" : 5126,
            "count" : 6816,
            "type" : "VEC2"
        },
        {
            "bufferView" : 8,
            "componentType" : 5123,
            "count" : 33384,
            "type" : "SCALAR"
        }
    ],
    "bufferViews" : [
        {
            "buffer" : 0,
            "byteLength" : 178440,
            "byteOffset" : 0
        },
        {
            "buffer" : 0,
            "byteLength" : 178440,
            "byteOffset" : 178440
        },
        {
            "buffer" : 0,
            "byteLength" : 118960,
            "byteOffset" : 356880
        },
        {
            "buffer" : 0,
            "byteLength" : 121944,
            "byteOffset" : 475840
        },
        {
            "buffer" : 0,
            "byteLength" : 4228,
            "byteOffset" : 597784
        },
        {
            "buffer" : 0,
            "byteLength" : 81792,
            "byteOffset" : 602012
        },
        {
            "buffer" : 0,
            "byteLength" : 81792,
            "byteOffset" : 683804
        },
        {
            "buffer" : 0,
            "byteLength" : 54528,
            "byteOffset" : 765596
        },
        {
            "buffer" : 0,
            "byteLength" : 66768,
            "byteOffset" : 820124
        },
        {
            "buffer" : 0,
            "byteLength" : 208769,
            "byteOffset" : 886892
        }
    ],
    "samplers" : [
        {
            "magFilter" : 9729,
            "minFilter" : 9986
        }
    ],
    "buffers" : [
        {
            "byteLength" : 1095664,
            "uri" : "data:application/octet-stream;base64,"
        }
    ]
}
